<?xml version="1.0" encoding="utf-8"?>
<!-- Generator: Adobe Illustrator 25.0.1, SVG Export Plug-In . SVG Version: 6.00 Build 0)  -->
<svg version="1.0" id="katman_1" xmlns="http://www.w3.org/2000/svg" xmlns:xlink="http://www.w3.org/1999/xlink" x="0px" y="0px"
	 viewBox="0 0 356.3 240" style="enable-background:new 0 0 356.3 240;" xml:space="preserve">
<style type="text/css">
	.st0{fill:#1C2453;}
	.st1{fill:#FFFFFF;}
	.st2{fill:#F47B2C;}
</style>
<g>
	<path class="st0" d="M133.6,20.5c-1.1,0.2-3.2,1-4.7,1.7c-1.7,0.8-3.2,1.9-4.3,2.8c-0.9,0.9-2.1,2.3-2.7,3.1
		c-0.6,0.9-1.4,2.6-1.9,3.8c-0.8,2.1-0.8,2.4-1,10.4l-0.2,8.2c-3.6,1.5-5.5,2.3-6.4,2.8c-1,0.5-2.9,1.7-4.4,2.6
		c-1.4,1-3.7,2.7-5.1,3.9c-1.3,1.2-3.4,3.2-4.5,4.5c-1.1,1.3-2.8,3.5-3.7,4.8c-0.9,1.3-2.2,3.6-3,5.1c-0.7,1.5-1.8,3.9-2.3,5.5
		c-0.6,1.6-1.3,4.4-1.8,6.3c-0.4,1.8-0.9,4.6-1.1,6.1c-0.2,1.5-0.4,5.4-0.4,8.6c0,3.4,0.2,6.8,0.4,8.2c0.2,1.3,0.8,3.8,1.2,5.5
		c0.5,1.8,1.4,4.6,2.1,6.3c0.7,1.7,2,4.3,2.9,5.8c0.9,1.5,2.4,3.9,3.5,5.2c1,1.4,3,3.7,4.5,5.2c1.5,1.5,4,3.8,5.6,5.1
		c1.6,1.3,4,3.1,5.4,4c1.4,0.9,4.1,2.4,6,3.3c1.9,0.9,4.8,2.1,6.4,2.6l2.9,1c0,23.4,0.1,26.4,0.4,28c0.2,1.1,0.9,3,1.5,4.2
		c0.6,1.2,1.9,3,2.8,4.1c1,1,2.5,2.4,3.5,3.1c1,0.7,2.7,1.7,3.9,2.3c1.2,0.6,3.6,1.6,5.4,2.4c1.8,0.7,4.1,1.9,5.2,2.5
		c1.9,1.1,2,1.2,3.1,3.6c0.9,1.8,1.5,2.8,2.8,4c1.3,1.2,3.8,2.7,10.3,6.2c4.7,2.6,9.4,5.1,10.4,5.6l1.8,1
		c17.6-9.6,21.2-11.7,22.3-12.7c0.9-0.8,2-2,2.4-2.7c0.5-0.7,1-1.8,1.2-2.5c0.3-0.9,0.7-1.4,2-2.2c0.9-0.6,2.9-1.6,4.5-2.3
		c1.6-0.7,4-1.8,5.2-2.4c1.3-0.6,3.2-1.6,4.2-2.3c1-0.7,2.5-1.9,3.4-2.8c0.9-0.9,2-2.3,2.6-3.3c0.6-0.9,1.3-2.8,1.7-4
		c0.7-2.3,0.7-2.6,0.9-16.2l0.2-13.8c5.2-1.8,8.3-3,10.2-4c1.9-0.9,4.8-2.6,6.4-3.7c1.6-1.1,3.9-2.8,5.1-3.8c1.2-1,3.4-3.1,4.8-4.6
		c1.4-1.5,3.5-3.9,4.5-5.2c1-1.4,2.6-3.7,3.5-5.2c0.9-1.5,2.1-4,2.8-5.4c0.6-1.4,1.5-3.9,1.9-5.4c0.5-1.5,1.1-4.1,1.4-5.8
		c0.4-2.3,0.5-4.6,0.5-8.9c0-3.2-0.2-7-0.4-8.5c-0.2-1.4-0.6-3.9-0.9-5.4c-0.3-1.5-1-4-1.5-5.5c-0.5-1.5-1.6-4.3-2.5-6.1
		c-0.9-1.8-2.5-4.7-3.5-6.3c-1.3-2-3.1-4.1-5.8-6.7c-2.5-2.5-4.8-4.4-6.6-5.6c-1.5-1-4.2-2.5-5.9-3.3l-3.1-1.5
		c0-14.5-0.1-17.1-0.4-18.6c-0.2-1.1-0.9-3-1.5-4.2c-0.7-1.5-1.7-2.8-3-4.1c-1.4-1.4-2.6-2.2-4.1-3c-1.2-0.6-3.1-1.3-4.3-1.5
		C224.5,20,219.6,20,180,20C142.6,20,135.3,20.1,133.6,20.5z"/>
	<path class="st1" d="M181.7,28.1c-0.6,0.3-1.3,0.9-1.6,1.3c-0.6,0.8-0.6,1.2-0.7,11.5c-0.1,10,0,10.8,0.5,11.7
		c0.3,0.6,0.9,1.3,1.3,1.6c0.7,0.5,1.2,0.6,5.7,0.6c4.5,0,5,0,5.8-0.6c0.4-0.3,1.1-1.1,1.4-1.6c0.4-0.7,0.6-1.8,0.7-3.7l0.2-2.7
		h-5.7c0,3.6-0.1,4.4-0.4,4.6c-0.2,0.1-1,0.2-1.8,0.3c-0.9,0.1-1.5-0.1-1.8-0.3c-0.4-0.4-0.4-1.8-0.4-9.4c0-4.9,0.1-9.2,0.3-9.5
		c0.2-0.4,0.6-0.5,1.8-0.5c0.9,0,1.7,0.2,1.9,0.4c0.2,0.2,0.4,1.1,0.4,2v1.7l5.7,0c-0.3-3.7-0.6-4.9-0.9-5.5
		c-0.3-0.5-0.9-1.3-1.4-1.6c-0.7-0.5-1.3-0.6-5.4-0.7C183.3,27.6,182.5,27.6,181.7,28.1z M163,41.3v13.4l5.7-0.1l0.1-10.3h5.8v-5
		h-5.8v-6.4h6.1v-5h-12V41.3z"/>
	<path class="st2" d="M133.6,55.7c-1.4,0.2-4.1,0.8-6,1.3c-1.8,0.5-4.7,1.4-6.4,2.1c-1.7,0.7-4.2,1.9-5.5,2.6
		c-1.4,0.8-3.5,2.2-4.7,3c-1.2,0.9-3.1,2.5-4.1,3.6c-1.1,1-2.7,2.9-3.7,4.2c-1,1.3-2.4,3.7-3.2,5.2c-0.8,1.6-1.9,4.1-2.4,5.5
		c-0.5,1.4-1.2,3.9-1.5,5.4c-0.3,1.5-0.7,4-0.9,5.4c-0.2,1.4-0.3,4.6-0.3,7c0,2.5,0.2,5.5,0.4,7c0.2,1.4,0.7,3.5,1,4.7
		c0.3,1.1,1,3.2,1.6,4.5c0.6,1.4,1.7,3.5,2.4,4.8c0.8,1.3,2.1,3.3,3,4.5c0.9,1.2,2.7,3.3,4,4.6c1.3,1.3,3.4,3.3,4.7,4.3
		c1.3,1,3.5,2.6,5,3.5c1.4,0.9,3.8,2.2,5.3,2.8c1.4,0.7,3.9,1.6,5.4,2.1c1.5,0.5,3.8,1.1,5,1.4c1.2,0.3,4.3,0.6,6.8,0.7
		c2.5,0.1,5.2,0.4,6,0.6c0.8,0.2,2.3,0.8,3.5,1.3c1.5,0.7,2.7,1.6,4,2.8c1.2,1.2,2.2,2.5,2.9,4c0.6,1.2,1.3,3,1.5,3.9
		c0.2,1,0.6,3.3,0.7,5.1c0.2,1.8,0.8,10.5,1.3,19.2c0.7,11.2,1.1,16.1,1.4,16.6c0.2,0.4,0.7,1,1,1.3c0.3,0.3,3.4,2.1,7,4
		c3.5,1.9,6.6,3.6,6.9,3.7c0.5,0.2,0.5-2.2,0.4-47.7l-0.1-47.9c-1.2-2.6-2.2-4-3-4.8c-0.8-0.8-2.1-1.8-3-2.2
		c-1.2-0.6-2.2-0.8-3.9-0.9c-2.1-0.1-2.8,0-7.6,1.4c-2.9,0.8-6.6,1.7-8.2,2c-1.6,0.3-4.3,0.7-6,0.9c-1.7,0.2-4,0.2-5.1,0.2
		c-1.1-0.1-3.2-0.5-4.5-0.8c-1.4-0.3-3.7-1.1-5.1-1.8c-1.4-0.7-3.7-2-5-3c-1.3-1-3-2.5-3.8-3.3c-0.8-0.9-1.9-2.3-2.5-3.2
		c-0.6-0.9-1.5-2.4-2-3.4c-0.5-1-1.3-3-1.7-4.4c-0.7-2.3-0.8-3-0.8-7.2c0-3.6,0.1-5.1,0.5-6.6c0.3-1,0.8-2.8,1.3-3.8
		c0.4-1.1,1.3-2.8,2.1-3.9c0.7-1.1,1.9-2.7,2.7-3.5c0.7-0.8,2.4-2.2,3.7-3.2c1.3-1,3.5-2.3,5-3c1.4-0.7,3.8-1.6,5.2-2
		c1.4-0.4,3-0.9,3.4-1c0.7-0.2,0.6-0.2-0.3-0.2C136.7,55.3,135.1,55.5,133.6,55.7z M220.7,56c1.3,0.4,3.1,1,4,1.3
		c0.9,0.3,2.5,1,3.5,1.5c1,0.5,2.7,1.5,3.7,2.2c1,0.7,2.8,2.1,3.9,3.2c1.1,1.1,2.3,2.4,2.7,3c0.4,0.6,1.3,2.2,2,3.6
		c0.7,1.5,1.5,3.5,1.7,4.5c0.3,1.1,0.6,3,0.7,4.4c0.1,1.4,0.1,3.7,0,5.2c-0.1,1.7-0.5,3.8-1,5.2c-0.4,1.4-1.3,3.5-1.9,4.7
		c-0.6,1.2-1.7,2.9-2.4,3.8c-0.7,0.9-2.2,2.5-3.4,3.6c-1.2,1.1-3.2,2.7-4.5,3.4s-3.1,1.7-4.2,2.1c-1,0.4-2.8,0.9-3.8,1.2
		c-1.1,0.2-2.9,0.5-4.1,0.6c-1.2,0.1-3.6,0-5.3-0.1c-1.7-0.2-4.6-0.6-6.6-1c-1.9-0.4-5.6-1.3-8.2-2.1c-4.2-1.2-4.9-1.3-7-1.2
		c-1.8,0.1-2.7,0.3-4.1,1c-1,0.5-2.3,1.4-3,2.1c-0.7,0.7-1.6,1.9-2,2.8l-0.8,1.5c-0.1,74.7-0.1,96.3,0,96.3c0.1,0,3.2-1.6,6.9-3.7
		c3.7-2,7-3.9,7.3-4.2c0.3-0.3,0.8-0.9,1-1.3c0.3-0.7,0.6-4,1.3-13.6c0.4-7,1-15.5,1.3-18.9c0.3-4.2,0.7-7,1.1-8.4
		c0.3-1.2,1.1-3.1,1.7-4.2c0.6-1.2,1.8-2.7,2.8-3.7c1.1-1.1,2.5-2.1,3.8-2.7c1.1-0.5,2.7-1.1,3.5-1.3c0.8-0.2,3.5-0.5,6-0.6
		c2.5-0.1,5.7-0.5,7.1-0.8c1.5-0.3,3.7-0.9,5-1.3c1.3-0.4,3.7-1.4,5.4-2.2s4.5-2.4,6.3-3.6c1.8-1.2,4.2-3,5.4-4.1
		c1.2-1.1,3-2.8,3.9-3.9c0.9-1,2.3-2.7,3-3.6c0.7-1,2-2.9,2.9-4.4c0.9-1.5,2.1-3.9,2.7-5.5c0.6-1.6,1.4-4,1.8-5.4
		c0.3-1.4,0.7-4.2,0.9-6.3c0.2-2.7,0.2-5.1,0-8.2c-0.2-2.4-0.6-5.7-0.9-7.3c-0.3-1.6-1-4.3-1.6-6c-0.6-1.7-1.7-4.3-2.5-5.8
		c-0.8-1.5-2.3-3.9-3.3-5.2c-1-1.4-2.9-3.5-4.2-4.7c-1.3-1.2-3.5-3-4.9-4c-1.4-1-3.8-2.4-5.3-3.1c-1.5-0.7-4.2-1.9-6.1-2.5
		s-5-1.5-6.9-1.9c-1.9-0.4-4.4-0.8-5.6-0.9l-2-0.2L220.7,56z"/>
	<path class="st1" d="M145.2,61.4c-0.7,0.3-1.5,1-1.9,1.5c-0.4,0.5-0.8,1.4-1,2c-0.2,0.7-0.3,4.9-0.3,13.8c0,7.2,0.1,13.3,0.3,13.8
		c0.1,0.6,0.6,1.5,0.9,2c0.4,0.6,1.2,1.3,1.8,1.6c1,0.5,1.8,0.6,6.4,0.7c3.2,0.1,5.8,0,6.5-0.2c0.7-0.2,1.7-0.7,2.3-1.3
		c0.6-0.5,1.3-1.4,1.5-2c0.4-0.8,0.5-2.5,0.5-8.8l0.1-7.8h-10.2v5.5h2.9c0,7.3-0.1,8.7-0.4,9c-0.2,0.2-1.2,0.4-2.4,0.4
		c-1.3,0-2.2-0.1-2.4-0.4c-0.3-0.3-0.4-3.1-0.4-12.7l0-12.3c1-0.4,2.2-0.5,3.2-0.4c1.2,0.1,2,0.2,2.1,0.5c0.1,0.2,0.2,1.4,0.2,2.6
		l0,2.3l7.4,0c-0.3-5.4-0.5-6.3-1-7.4c-0.4-0.8-1-1.7-1.4-1.9c-0.4-0.3-1.2-0.6-1.8-0.8c-0.6-0.2-3.1-0.3-6.4-0.3
		C147.3,60.8,146.3,60.9,145.2,61.4z M171.3,61.3c-0.6,0.2-1.4,0.6-1.7,0.9c-0.3,0.3-0.8,1-1.2,1.7c-0.6,1.1-0.6,1.5-0.7,14.4
		c0,7.8,0,13.7,0.2,14.3c0.2,0.6,0.6,1.5,0.9,2c0.4,0.6,1.2,1.3,1.8,1.6c1.1,0.6,1.6,0.6,7.3,0.6c5.6,0,6.2-0.1,7.3-0.6
		c0.6-0.3,1.5-1,1.8-1.6c0.4-0.6,0.8-1.4,0.9-2c0.2-0.6,0.3-6.6,0.3-13.7c0-8.3-0.1-13.1-0.3-13.8c-0.2-0.6-0.7-1.6-1.1-2.2
		c-0.4-0.5-1.3-1.2-1.9-1.5c-1-0.4-2-0.5-6.9-0.5C173.9,60.8,172.2,61,171.3,61.3z M197.6,61.4c-0.6,0.3-1.4,0.9-1.8,1.2
		c-0.3,0.4-0.9,1.2-1.2,1.9c-0.5,1.1-0.5,2.4-0.6,16.5l-0.1,15.4h7.9V84.7h5.2v11.7h7.9l-0.2-30.7c-1.5-3.1-1.8-3.5-3.1-4.1
		c-1.5-0.7-1.7-0.7-7.2-0.7C199.5,60.8,198.6,60.9,197.6,61.4z"/>
	<path class="st0" d="M176.1,66c-0.2,0.1-0.5,0.3-0.7,0.5c-0.1,0.2-0.2,5.8-0.2,12.4c0,9.4,0.1,12.2,0.4,12.5
		c0.2,0.2,1.1,0.4,2.4,0.4c1.3,0,2.2-0.1,2.4-0.4c0.3-0.3,0.4-3.3,0.4-12.5c0-7.1-0.1-12.3-0.3-12.5c-0.2-0.3-0.8-0.4-2.1-0.5
		C177.4,65.9,176.4,65.9,176.1,66z M202.7,66l-0.7,0.2l-0.1,12.6h5.2c0-12.2,0-12.6-0.6-12.8c-0.3-0.2-1.1-0.3-1.8-0.3
		C204,65.8,203.1,65.9,202.7,66z"/>
	<path class="st2" d="M136.1,165.1c0.1,14.5,0.1,14.8,0.8,16.2c0.4,0.8,1.3,2.1,2.2,2.9c0.9,0.9,2.6,2,3.9,2.7
		c1.3,0.6,3.8,1.8,5.5,2.5c1.8,0.8,4.1,1.9,5.1,2.5c1.1,0.7,1.9,1,2,0.8c0.1-0.2-0.4-7.1-0.9-15.4c-0.6-8.2-1.1-15-1.1-15.1
		c0-0.1-0.9,0.1-2,0.2c-1,0.2-2.5,0.2-3.2,0.1s-1.6-0.4-2-0.6c-0.4-0.2-1.1-0.8-1.5-1.2c-0.4-0.5-1-1.3-1.2-1.9
		c-0.3-0.7-0.4-2-0.4-3.4c0-1.2,0.1-2.9,0.3-3.6c0.2-0.7,0.3-1.3,0.2-1.3c-0.1,0-1.8-0.1-3.8-0.2l-3.8-0.2L136.1,165.1z
		 M215.9,150.5c-2.7,0.1-3,0.1-2.8,0.6c0.1,0.3,0.3,1.4,0.5,2.4c0.2,1.4,0.2,2.4,0,3.8c-0.2,1-0.7,2.4-1.1,3c-0.4,0.6-1.3,1.4-2,1.7
		c-0.9,0.4-1.8,0.6-3,0.7c-1,0-2.4-0.1-3.1-0.2l-1.4-0.2c0,1.9-0.5,8.8-1,16.6c-0.5,7.8-0.9,14.2-0.9,14.2c0.1,0,0.5-0.2,0.9-0.5
		c0.4-0.3,1.5-0.9,2.4-1.4c0.9-0.4,3.4-1.6,5.7-2.6c2.2-1,4.9-2.3,5.8-2.9c1-0.6,2.1-1.6,2.5-2.2c0.4-0.6,1-1.4,1.2-1.9
		c0.2-0.5,0.6-1.6,0.8-2.4c0.2-1,0.3-6.2,0.3-15.2v-13.7C219.3,150.4,217.6,150.5,215.9,150.5z"/>
</g>
</svg>
